<?xml version="1.0" encoding="UTF-8"?>
<svg version="1.1" xmlns="http://www.w3.org/2000/svg" width="204" height="192">
<path d="M0 0 C2.13222808 -0.00015529 4.26445644 -0.00164916 6.39668274 -0.00440979 C10.84376658 -0.00578716 15.29052529 0.00665605 19.73754883 0.02954102 C25.41647729 0.0579754 31.09486854 0.05516512 36.77383709 0.0424509 C41.16895582 0.03547384 45.56395189 0.04330531 49.95905495 0.05570793 C52.05247336 0.06019905 54.14590504 0.06057987 56.23932457 0.05664253 C59.16983126 0.05370899 62.09961444 0.07033742 65.0300293 0.09204102 C66.30599724 0.08528854 66.30599724 0.08528854 67.60774231 0.07839966 C78.47356447 0.21108079 87.63960597 3.71597662 95.6171875 11.125 C103.08542054 19.19218908 104.95291993 28.34718677 105.1796875 39.0390625 C105.2109951 40.28748428 105.2109951 40.28748428 105.24293518 41.56112671 C105.30900487 44.26852355 105.36797864 46.97600857 105.42578125 49.68359375 C105.44662781 50.61058075 105.46747437 51.53756775 105.48895264 52.49264526 C105.82504895 67.49625028 106.06838202 82.4888268 105.86328125 97.49609375 C105.85029052 98.83430706 105.83761186 100.17252343 105.82519531 101.51074219 C105.78895488 105.10989286 105.72854076 108.70806256 105.65374756 112.30661011 C105.62726899 113.69837239 105.60672717 115.09026344 105.59283447 116.48220825 C105.46996529 127.60493217 104.05734574 139.20234478 95.86328125 147.49609375 C87.04968699 154.80270039 79.10620509 157.95638337 67.76635742 157.90014648 C66.29881264 157.91044136 66.29881264 157.91044136 64.80162048 157.92094421 C61.58634685 157.9391566 58.37156387 157.93538184 55.15625 157.9296875 C52.90716901 157.93425261 50.65808942 157.93955917 48.40901184 157.9455719 C43.70092087 157.95449262 38.99299961 157.95209238 34.28491211 157.94213867 C28.27294439 157.93066254 22.26156523 157.95084555 16.2496748 157.98005581 C11.60574159 157.99846837 6.96194802 157.99811504 2.31798744 157.99241829 C0.10257455 157.99226563 -2.11284815 157.99826387 -4.32822609 158.01070976 C-18.54914867 158.07934028 -30.69485995 158.11622916 -42.12890625 148.546875 C-50.42635182 140.07185763 -52.44385748 130.181653 -52.41137695 118.75048828 C-52.41648788 117.80953308 -52.42159882 116.86857788 -52.42686462 115.89910889 C-52.44068953 112.80897544 -52.43980916 109.71906682 -52.4375 106.62890625 C-52.44139089 104.46711139 -52.44572637 102.30531729 -52.45048523 100.14352417 C-52.45793223 95.61958332 -52.45766722 91.09572053 -52.45239258 86.57177734 C-52.44660077 80.79297703 -52.46352959 75.01449751 -52.48673725 69.2357502 C-52.50151527 64.77287956 -52.50234074 60.31008545 -52.49922752 55.84719467 C-52.49973871 53.71748087 -52.5049382 51.58776257 -52.51503944 49.45807266 C-52.52746518 46.47200305 -52.52057537 43.48654907 -52.5090332 40.50048828 C-52.51667694 39.63263702 -52.52432068 38.76478577 -52.53219604 37.87063599 C-52.43017652 25.84566128 -48.09079543 16.12830058 -39.57421875 7.68359375 C-28.20230949 -1.27213555 -13.66759572 -0.08156086 0 0 Z " fill="#FCD12C" transform="translate(72.13671875,17.50390625)"/>
<path d="M0 0 C14.98567442 -1.77674463 14.98567442 -1.77674463 20.53125 2.0625 C23.30681052 4.33690592 25.8307362 6.8632298 28.35253906 9.41259766 C31.22795671 12.18319125 34.39873719 14.57080727 37.5625 17 C38.70975276 17.89568306 39.85689513 18.79150753 41.00390625 19.6875 C43.32281167 21.47732009 45.64908402 23.25261991 48 25 C46.77294966 22.83210957 45.5439185 20.66540883 44.3125 18.5 C43.94962891 17.8615918 43.58675781 17.22318359 43.21289062 16.56542969 C41.21807519 13.07361687 39.17463361 9.63415605 37 6.25 C35 3 35 3 35 1 C47.4783037 -0.23713904 54.8839711 1.4823659 65.09130859 8.69042969 C68.43572575 10.98506433 71.94437467 13.00471804 75.4375 15.0625 C76.70773104 15.82305122 77.97733075 16.58465855 79.24609375 17.34765625 C80.15488281 17.89292969 81.06367188 18.43820313 82 19 C80.78919887 25.65940623 78.69123677 31.85599191 76.38867188 38.20141602 C74.52747298 43.37886126 72.88654024 48.58549864 71.375 53.875 C70.0579534 58.48181236 68.69418498 63.01379816 67 67.5 C65.31793262 71.96084268 63.94179273 76.48325227 62.625 81.0625 C60.22434082 89.40380524 57.51945907 97.62560488 54.72949219 105.84375 C53.47289666 109.55802434 52.23775498 113.27941108 51 117 C45.39 117 39.78 117 34 117 C34.25394531 115.29457031 34.50789063 113.58914062 34.76953125 111.83203125 C35.11721887 109.49219216 35.46487257 107.15234803 35.8125 104.8125 C36.08924561 102.95443726 36.08924561 102.95443726 36.37158203 101.05883789 C37.17939236 95.61787388 37.98576308 90.17764121 38.72265625 84.7265625 C40.46343902 71.9041797 42.68546648 59.18672907 45.01904297 46.46069336 C45.14937424 45.7410289 45.27970551 45.02136444 45.41398621 44.27989197 C45.77177547 42.30450974 46.13415666 40.32996082 46.49682617 38.35546875 C46.92578758 35.49489348 47.10604125 32.88267466 47 30 C46.69707031 31.00417969 46.39414063 32.00835937 46.08203125 33.04296875 C43.7225079 40.77585239 41.16091034 48.33333868 38.18359375 55.85546875 C36.58944579 60.09074634 35.32680635 64.40314792 34.03515625 68.73828125 C32.60905194 73.23185522 30.87224434 77.5842213 29.14453125 81.96875 C28.17697509 84.53128781 27.36052446 87.05224671 26.625 89.6875 C24.96461723 95.52779986 22.67300037 101.12333241 20.42431641 106.7565918 C20.12702637 107.50465088 19.82973633 108.25270996 19.5234375 109.0234375 C19.25450684 109.69294434 18.98557617 110.36245117 18.70849609 111.05224609 C17.84887484 113.31066646 17.84887484 113.31066646 17 117 C11.39 117 5.78 117 0 117 C2.21176495 101.07803992 5.02252186 85.41519224 8.53735352 69.73657227 C11.8436183 55.01095768 11.8436183 55.01095768 13 40 C11.00255515 44.2889298 9.08529261 48.53714642 7.6875 53.0625 C6.09738763 58.05006559 3.95652693 62.78586654 1.77612305 67.53735352 C-0.68602158 72.99786175 -2.66314521 78.5953983 -4.65283203 84.24291992 C-6.89028403 90.48288888 -9.31990156 96.64555207 -11.75 102.8125 C-12.24882789 104.08914193 -12.74752625 105.36583448 -13.24609375 106.64257812 C-13.71660156 107.83947266 -14.18710937 109.03636719 -14.671875 110.26953125 C-15.30754395 111.88758667 -15.30754395 111.88758667 -15.95605469 113.53833008 C-17 116 -17 116 -18 117 C-20.69654854 117.07319621 -23.36691458 117.09242537 -26.0625 117.0625 C-26.82111328 117.05798828 -27.57972656 117.05347656 -28.36132812 117.04882812 C-30.24091871 117.0370068 -32.12046899 117.01907078 -34 117 C-33.35269033 109.72728546 -31.95214054 102.79659081 -30.3125 95.6875 C-29.76973483 93.29582194 -29.22810546 90.9038859 -28.6875 88.51171875 C-28.26984375 86.66586182 -28.26984375 86.66586182 -27.84375 84.78271484 C-26.19417432 77.38730814 -24.6413947 69.97065032 -23.09301758 62.5534668 C-21.78783432 56.38064796 -20.32339662 50.30652216 -18.55737305 44.24829102 C-17.08148599 38.29496475 -19.9278594 33.96780357 -22.609375 28.8359375 C-24.61087709 24.75422256 -26.14044319 20.52474252 -27.73046875 16.26953125 C-29.34488524 12.11178785 -31.18658185 8.08272418 -33.08203125 4.046875 C-34 2 -34 2 -34 1 C-19.74023231 -0.67265048 -19.74023231 -0.67265048 -13.62109375 3.0625 C-11.03010211 5.33220024 -8.72387289 7.8544535 -6.44140625 10.43017578 C-4.02883705 13.05768594 -1.34907273 15.38000988 1.3125 17.75 C5.66551331 21.71621919 9.8828923 25.78932167 14 30 C9.92805087 21.18433348 5.87011189 12.43330661 1.03125 4.00390625 C0 2 0 2 0 0 Z " fill="#050236" transform="translate(78,38)"/>
<path d="M0 0 C1.10751245 3.60530648 0.60354618 5.81473374 -0.40332031 9.43945312 C-1.12599688 12.54069363 -1.48566014 15.61878422 -1.859375 18.78125 C-2.80870097 26.3231787 -4.31763297 33.68211156 -5.97186279 41.09664917 C-8.59578466 52.87884599 -10.90731822 64.61630912 -12.4921875 76.58984375 C-13 80 -13 80 -14 82 C-8.39 82 -2.78 82 3 82 C2.67 82.66 2.34 83.32 2 84 C-3.61 84 -9.22 84 -15 84 C-17.12252058 79.75495884 -17.17870306 79.14181919 -16.1875 74.8125 C-15.99542969 73.93207031 -15.80335937 73.05164063 -15.60546875 72.14453125 C-15 70 -15 70 -14 69 C-13.76712992 67.31816052 -13.58735834 65.6287584 -13.4375 63.9375 C-13.35371094 63.01839844 -13.26992187 62.09929687 -13.18359375 61.15234375 C-13.12300781 60.44207031 -13.06242187 59.73179687 -13 59 C-12.34 59 -11.68 59 -11 59 C-11 55.04 -11 51.08 -11 47 C-12.1446875 48.2065625 -12.1446875 48.2065625 -13.3125 49.4375 C-16 52 -16 52 -19 53 C-19 53.66 -19 54.32 -19 55 C-19.66 55 -20.32 55 -21 55 C-20.01535858 51.99425252 -19.01478453 48.99564394 -18 46 C-17.63648437 44.92492187 -17.27296875 43.84984375 -16.8984375 42.7421875 C-14.42709424 35.61515242 -11.58294622 28.84017266 -8.34375 22.03125 C-6.79453882 18.5365178 -5.73002009 15.04677996 -4.72265625 11.3671875 C-3.51756324 7.41969365 -1.77074324 3.72125737 0 0 Z " fill="#FBD22F" transform="translate(92,73)"/>
<path d="M0 0 C0.33 0 0.66 0 1 0 C0.49720837 9.75293137 -1.15222512 19.21840564 -2.896698 28.80639648 C-3.70309839 33.24234471 -4.49129116 37.68150067 -5.27734375 42.12109375 C-5.50651237 43.41447159 -5.50651237 43.41447159 -5.74031067 44.73397827 C-7.39238667 54.12409043 -8.7832402 63.54403812 -10 73 C-10.33 73 -10.66 73 -11 73 C-9.86567164 44.73134328 -9.86567164 44.73134328 -7 39 C-6.7724985 37.12943209 -6.59037189 35.25314042 -6.4375 33.375 C-6.35371094 32.37210938 -6.26992187 31.36921875 -6.18359375 30.3359375 C-6.12300781 29.56507812 -6.06242187 28.79421875 -6 28 C-6.66 28 -7.32 28 -8 28 C-8.66 31.3 -9.32 34.6 -10 38 C-11.485 38.495 -11.485 38.495 -13 39 C-11.13603588 31.10034252 -8.45931055 23.57268202 -5.60131836 15.9909668 C-3.60749113 10.69891362 -1.74938915 5.37792985 0 0 Z " fill="#D7BB4F" transform="translate(125,67)"/>
<path d="M0 0 C0.78503906 -0.00386719 1.57007812 -0.00773437 2.37890625 -0.01171875 C8.24669213 -0.00165394 8.24669213 -0.00165394 10.5 1.125 C10.5 1.785 10.5 2.445 10.5 3.125 C4.23 2.795 -2.04 2.465 -8.5 2.125 C-6.39625 5.899375 -6.39625 5.899375 -4.25 9.75 C-3.81655273 10.53068848 -3.38310547 11.31137695 -2.93652344 12.11572266 C-1.13201 15.33783436 0.70001236 18.48169231 2.796875 21.5234375 C4.5 24.125 4.5 24.125 4.5 26.125 C1.65875809 24.8049177 -0.66223933 23.32653376 -3.07421875 21.33203125 C-3.73808594 20.78699951 -4.40195313 20.24196777 -5.0859375 19.68041992 C-5.77945313 19.10525635 -6.47296875 18.53009277 -7.1875 17.9375 C-8.61790839 16.76231307 -10.04889467 15.58782916 -11.48046875 14.4140625 C-12.16931152 13.84848633 -12.8581543 13.28291016 -13.56787109 12.70019531 C-17.15838798 9.77297583 -20.81888025 6.93696647 -24.5 4.125 C-23.84 3.795 -23.18 3.465 -22.5 3.125 C-21.613125 3.785 -20.72625 4.445 -19.8125 5.125 C-16.51888014 7.11360067 -15.21748127 7.56235074 -11.5 7.125 C-11.5 8.115 -11.5 9.105 -11.5 10.125 C-10.51 10.125 -9.52 10.125 -8.5 10.125 C-9.16 9.795 -9.82 9.465 -10.5 9.125 C-10.5 6.485 -10.5 3.845 -10.5 1.125 C-7.21855481 -0.51572259 -3.60210004 -0.01774434 0 0 Z " fill="#D4B83E" transform="translate(121.5,36.875)"/>
<path d="M0 0 C3.77119384 2.51412922 4.98725626 5.53460776 6.875 9.5 C7.57916749 10.95064687 8.28359453 12.40116779 8.98828125 13.8515625 C9.32939941 14.55958008 9.67051758 15.26759766 10.02197266 15.99707031 C11.69871342 19.43091486 13.49442063 22.80417947 15.28515625 26.1796875 C15.52105469 26.78039062 15.75695312 27.38109375 16 28 C15.67 28.66 15.34 29.32 15 30 C14.5875 29.58226318 14.175 29.16452637 13.75 28.73413086 C3.86138578 18.61782507 3.86138578 18.61782507 -6.6796875 9.19921875 C-8 8 -8 8 -9 6 C-6.03 6.495 -6.03 6.495 -3 7 C-2.814375 6.1028125 -2.814375 6.1028125 -2.625 5.1875 C-2 3 -2 3 0 0 Z " fill="#EFCA39" transform="translate(77,39)"/>
<path d="M0 0 C0.33 0 0.66 0 1 0 C1.74936008 27.35562876 2.39561309 54.6664185 1.68060303 82.03024292 C1.64402474 83.44938804 1.60997768 84.86860105 1.57867432 86.28787231 C1.53319154 88.26897558 1.4738551 90.24974573 1.4140625 92.23046875 C1.36693115 93.93819458 1.36693115 93.93819458 1.31884766 95.68041992 C0.96457135 99.36885402 0.11601533 102.47490194 -1 106 C-3 103 -3 103 -3 101 C-2.34 101 -1.68 101 -1 101 C-1.00523682 100.21431641 -1.01047363 99.42863281 -1.01586914 98.61914062 C-1.14387069 75.63719097 -0.87464638 52.66581137 -0.5 29.6875 C-0.48206327 28.58705856 -0.48206327 28.58705856 -0.46376419 27.46438599 C-0.31408888 18.30950588 -0.159374 9.15471676 0 0 Z " fill="#E4C554" transform="translate(176,48)"/>
<path d="M0 0 C0.33 0 0.66 0 1 0 C0.88260541 1.47978969 0.75553868 2.95881184 0.625 4.4375 C0.55539063 5.26121094 0.48578125 6.08492188 0.4140625 6.93359375 C0.07810396 9.42158862 -0.37636216 11.75560709 -0.94140625 14.1953125 C-2.09915124 19.24044943 -2.84467903 24.31400535 -3.5625 29.4375 C-3.81062792 31.20747913 -4.06177951 32.97703784 -4.31640625 34.74609375 C-4.42412354 35.51622803 -4.53184082 36.2863623 -4.64282227 37.07983398 C-5 39 -5 39 -6 41 C-0.39 41 5.22 41 11 41 C10.67 41.66 10.34 42.32 10 43 C4.39 43 -1.22 43 -7 43 C-9.12252058 38.75495884 -9.17870306 38.14181919 -8.1875 33.8125 C-7.99542969 32.93207031 -7.80335937 32.05164063 -7.60546875 31.14453125 C-7 29 -7 29 -6 28 C-5.76712992 26.31816052 -5.58735834 24.6287584 -5.4375 22.9375 C-5.31181641 21.55884766 -5.31181641 21.55884766 -5.18359375 20.15234375 C-5.12300781 19.44207031 -5.06242187 18.73179687 -5 18 C-4.34 18 -3.68 18 -3 18 C-3.061875 16.700625 -3.12375 15.40125 -3.1875 14.0625 C-3.21187142 8.94450211 -1.87433898 4.71931779 0 0 Z " fill="#E4C555" transform="translate(84,114)"/>
<path d="M0 0 C0.33 0 0.66 0 1 0 C1.66 2.31 2.32 4.62 3 7 C2.51322375 7.41239079 2.02644751 7.82478159 1.52492046 8.24966908 C-0.31361006 10.35996723 -0.3807072 11.24820182 -0.39872742 14.0052948 C-0.41126556 14.81717758 -0.42380371 15.62906036 -0.4367218 16.46554565 C-0.43528671 17.35243073 -0.43385162 18.2393158 -0.43237305 19.15307617 C-0.4425647 20.08985703 -0.45275635 21.02663788 -0.46325684 21.99180603 C-0.49348276 25.09225368 -0.50266749 28.19239288 -0.51171875 31.29296875 C-0.52855831 33.44103531 -0.54670756 35.58909196 -0.56611633 37.73713684 C-0.61370091 43.39404203 -0.6434556 49.0509071 -0.66955566 54.70794678 C-0.69931852 60.4792066 -0.74586349 66.25032806 -0.79101562 72.02148438 C-0.87714499 83.347584 -0.94444742 94.67371203 -1 106 C-1.33 106 -1.66 106 -2 106 C-2.04639269 93.36056832 -2.08190449 80.72115698 -2.10362434 68.08165741 C-2.11405011 62.21228523 -2.12818737 56.34297141 -2.15087891 50.47363281 C-2.17265017 44.80670093 -2.18457771 39.1398251 -2.18975449 33.47285461 C-2.19344254 31.3135744 -2.20064436 29.15429717 -2.21146011 26.99504089 C-2.22603183 23.96472606 -2.22797555 20.93464125 -2.22705078 17.90429688 C-2.23424133 17.01668671 -2.24143188 16.12907654 -2.24884033 15.21456909 C-2.23106343 9.81175973 -1.51376221 5.1916753 0 0 Z " fill="#EDC644" transform="translate(22,40)"/>
<path d="M0 0 C2.86366532 2.86366532 3.9125052 6.41833216 5.375 10.125 C5.9630045 11.6080202 6.55414726 13.08979998 7.1484375 14.5703125 C7.59074707 15.67681152 7.59074707 15.67681152 8.04199219 16.80566406 C9.27035248 19.61924774 10.7666274 22.24998852 12.35009766 24.87841797 C13.91353155 29.98218978 11.6102365 35.98261449 10.40625 41.03515625 C10.25466431 41.67690292 10.10307861 42.3186496 9.94689941 42.97984314 C9.4675106 45.00809897 8.98411311 47.03536705 8.5 49.0625 C8.01628257 51.09329173 7.5335152 53.12429281 7.05310059 55.15586853 C6.61769238 56.99644594 6.17905699 58.83625905 5.74023438 60.67602539 C5.05024724 63.77436801 4.48878836 66.86430347 4 70 C3.67 70 3.34 70 3 70 C3.11418667 67.41577541 3.24092362 64.83320487 3.375 62.25 C3.4059375 61.52039063 3.436875 60.79078125 3.46875 60.0390625 C3.67937561 56.17759299 4.10320524 53.3587512 6 50 C6.34111094 47.91272891 6.34111094 47.91272891 6.4375 45.75 C6.7266741 42.48875871 7.3188278 39.84031876 8.5625 36.8125 C11.31555316 29.92308619 9.49534074 24.6839484 7 18 C6.34 18 5.68 18 5 18 C4.71125 16.865625 4.4225 15.73125 4.125 14.5625 C3.75375 13.386875 3.3825 12.21125 3 11 C2.34 10.67 1.68 10.34 1 10 C0.5859375 7.71484375 0.5859375 7.71484375 0.375 4.9375 C0.30023438 4.01839844 0.22546875 3.09929688 0.1484375 2.15234375 C0.09945312 1.44207031 0.05046875 0.73179688 0 0 Z " fill="#CBB151" transform="translate(48,49)"/>
<path d="M0 0 C1.32 0 2.64 0 4 0 C5.9530246 4.09828032 6.24357279 7.38284093 6.22705078 11.90161133 C6.22734283 12.57533783 6.22763489 13.24906433 6.22793579 13.94320679 C6.22654938 16.15628214 6.21102111 18.36901516 6.1953125 20.58203125 C6.19157991 22.12188025 6.1887341 23.66173163 6.18673706 25.20158386 C6.17911994 29.24415708 6.15948808 33.28658539 6.1373291 37.32910156 C6.11682918 41.4583134 6.10772649 45.58754876 6.09765625 49.71679688 C6.07624026 57.81126423 6.04212766 65.90561406 6 74 C5.67 74 5.34 74 5 74 C5 51.56 5 29.12 5 6 C1.14061025 4.65486576 1.14061025 4.65486576 -2 6 C-1.49396008 3.83125748 -1.00016187 2.00032373 0 0 Z " fill="#F6CF38" transform="translate(170,38)"/>
<path d="M0 0 C0.33 0 0.66 0 1 0 C0.47411821 8.08817747 -1.17222155 15.7568804 -3.0625 23.625 C-3.34416016 24.81996094 -3.62582031 26.01492187 -3.91601562 27.24609375 C-4.60497521 30.16541402 -5.30169034 33.08290216 -6 36 C1.92 35.505 1.92 35.505 10 35 C10.99 32.69 11.98 30.38 13 28 C13.96912042 31.27078142 14 33.39035432 14 37 C6.74 37 -0.52 37 -8 37 C-7.125 26.125 -7.125 26.125 -6 25 C-5.8151097 23.44163894 -5.67713351 21.87759833 -5.5625 20.3125 C-5.20372698 16.27919686 -4.49657117 12.79131363 -3 9 C-2.34 9 -1.68 9 -1 9 C-0.67 6.03 -0.34 3.06 0 0 Z " fill="#DCC150" transform="translate(50,119)"/>
<path d="M0 0 C0.66 0 1.32 0 2 0 C2.63019694 10.15317287 2.63019694 10.15317287 0 13.6875 C-0.66 14.120625 -1.32 14.55375 -2 15 C-2 14.34 -2 13.68 -2 13 C-2.66 13 -3.32 13 -4 13 C-4 14.32 -4 15.64 -4 17 C-4.66 17 -5.32 17 -6 17 C-6.103125 17.94875 -6.20625 18.8975 -6.3125 19.875 C-7 23 -7 23 -10 25 C-9.54636829 23.41531323 -9.08688548 21.83230076 -8.625 20.25 C-8.36976562 19.36828125 -8.11453125 18.4865625 -7.8515625 17.578125 C-7.07235106 15.21904448 -6.26171708 13.13817703 -5 11 C-4.34 10.67 -3.68 10.34 -3 10 C-2.27129528 7.68529088 -1.60760482 5.3494053 -1 3 C-0.67 2.01 -0.34 1.02 0 0 Z " fill="#FBD230" transform="translate(117,95)"/>
<path d="M0 0 C1.10517757 3.5977057 0.60827814 5.80050388 -0.3984375 9.41796875 C-1.14836704 12.63682219 -1.53554407 15.84463087 -1.9375 19.125 C-2.86819717 26.53334949 -4.31768585 33.72118743 -6 41 C-6.33 41 -6.66 41 -7 41 C-7.33153877 34.43062065 -7.02452662 29.11167289 -4.66796875 22.94921875 C-3.85339983 20.57220184 -3.75872183 18.4932078 -4 16 C-4.66 16 -5.32 16 -6 16 C-4.25192871 10.53262809 -2.34205919 5.24175152 0 0 Z " fill="#BAA557" transform="translate(92,73)"/>
<path d="M0 0 C0.33 0 0.66 0 1 0 C0.56861462 13.84895821 -0.81596736 27.31888988 -3 41 C-3.99 41 -4.98 41 -6 41 C-4.02 27.47 -2.04 13.94 0 0 Z " fill="#291F1D" transform="translate(119,107)"/>
<path d="M0 0 C1.2380014 3.57644848 0.74926071 6.33694766 0 10 C-0.66 10 -1.32 10 -2 10 C-2 10.99 -2 11.98 -2 13 C-2.66 13 -3.32 13 -4 13 C-3.89300781 13.61488281 -3.78601563 14.22976562 -3.67578125 14.86328125 C-3.55589844 15.67152344 -3.43601562 16.47976562 -3.3125 17.3125 C-3.18488281 18.11300781 -3.05726562 18.91351563 -2.92578125 19.73828125 C-3 22 -3 22 -4.35546875 23.79296875 C-6 25 -6 25 -8 25 C-8 25.66 -8 26.32 -8 27 C-8.66 27 -9.32 27 -10 27 C-8.21097259 21.53875842 -6.35136886 16.10635354 -4.4375 10.6875 C-4.02371094 9.51574219 -3.60992187 8.34398438 -3.18359375 7.13671875 C-2.24529648 4.65007614 -1.25268776 2.33796563 0 0 Z " fill="#E5C448" transform="translate(81,101)"/>
<path d="M0 0 C3.26309597 2.72931793 4.90051326 6.32166572 6.75 10.0625 C7.07871094 10.69994141 7.40742187 11.33738281 7.74609375 11.99414062 C8.56378581 13.63124982 9.28949826 15.31360322 10 17 C9.67 17.66 9.34 18.32 9 19 C4.05 14.05 -0.9 9.1 -6 4 C-2.48283697 4 -1.62878252 4.82445585 1 7 C0.67 4.69 0.34 2.38 0 0 Z " fill="#E4CA4F" transform="translate(83,50)"/>
<path d="M0 0 C0.66 0 1.32 0 2 0 C1.38074535 3.4152027 0.53132639 6.59353472 -0.62890625 9.86328125 C-0.94150391 10.74951172 -1.25410156 11.63574219 -1.57617188 12.54882812 C-1.90166016 13.46083984 -2.22714844 14.37285156 -2.5625 15.3125 C-2.89185547 16.24384766 -3.22121094 17.17519531 -3.56054688 18.13476562 C-4.37067212 20.42425 -5.18493014 22.71227127 -6 25 C-11.61 25 -17.22 25 -23 25 C-22.67 24.34 -22.34 23.68 -22 23 C-15.07 23.495 -15.07 23.495 -8 24 C-7.34 21.03 -6.68 18.06 -6 15 C-5.34 15 -4.68 15 -4 15 C-4.04125 14.319375 -4.0825 13.63875 -4.125 12.9375 C-3.97450035 9.40075832 -3.05624147 6.36676967 -2 3 C-1.34 3 -0.68 3 0 3 C0 2.01 0 1.02 0 0 Z " fill="#120A11" transform="translate(101,130)"/>
<path d="M0 0 C0.99 0.495 0.99 0.495 2 1 C2.625 3.0625 2.625 3.0625 3 5 C3.66 5 4.32 5 5 5 C5.33 4.01 5.66 3.02 6 2 C7.88897236 5.18764086 8.08934118 7.33701169 8 11 C8.29749946 12.67343448 8.62127066 14.34305915 9 16 C8.34 16.33 7.68 16.66 7 17 C0.29612756 6.81093394 0.29612756 6.81093394 0 0 Z " fill="#F4CE41" transform="translate(21,147)"/>
<path d="M0 0 C1.33201473 2.66402946 0.69751146 3.5586384 -0.21484375 6.3515625 C-0.48876953 7.20234375 -0.76269531 8.053125 -1.04492188 8.9296875 C-1.33947266 9.81914062 -1.63402344 10.70859375 -1.9375 11.625 C-2.22818359 12.5221875 -2.51886719 13.419375 -2.81835938 14.34375 C-3.53897146 16.56465282 -4.26864359 18.78261215 -5 21 C-10.61 21 -16.22 21 -22 21 C-21.67 18.69 -21.34 16.38 -21 14 C-20.67 14 -20.34 14 -20 14 C-20 15.98 -20 17.96 -20 20 C-15.71 20 -11.42 20 -7 20 C-7 19.01 -7 18.02 -7 17 C-6.34 17 -5.68 17 -5 17 C-4.89042969 16.27554688 -4.78085938 15.55109375 -4.66796875 14.8046875 C-3.77128895 9.33712777 -2.84045685 4.77713197 0 0 Z " fill="#11080D" transform="translate(134,134)"/>
<path d="M0 0 C4.81912502 5.37517791 8.71629118 12.14887353 11 19 C8.00779732 17.63629701 5.70973471 16.05091917 3.25 13.875 C2.63640625 13.33617187 2.0228125 12.79734375 1.390625 12.2421875 C0.93171875 11.83226562 0.4728125 11.42234375 0 11 C0.66 10.67 1.32 10.34 2 10 C2.66 10.33 3.32 10.66 4 11 C3.34 9.9275 2.68 8.855 2 7.75 C0.11704193 4.69019314 0 3.8664136 0 0 Z " fill="#C9B25F" transform="translate(115,44)"/>
<path d="M0 0 C1.67376245 6.03046764 0.01796734 12.06894551 -2.5625 17.6875 C-4.07592742 21.17496318 -4.61570962 24.23395425 -5 28 C-5.99 28.33 -6.98 28.66 -8 29 C-8.495 31.475 -8.495 31.475 -9 34 C-10.20263473 30.39209582 -9.69612249 29.45584748 -8.41796875 25.95703125 C-8.06283203 24.96509766 -7.70769531 23.97316406 -7.34179688 22.95117188 C-6.77041992 21.3975293 -6.77041992 21.3975293 -6.1875 19.8125 C-3.80412304 13.25301403 -1.54198303 6.81246473 0 0 Z " fill="#D0B655" transform="translate(152,80)"/>
<path d="M0 0 C2.79224073 -0.08071788 5.58216566 -0.14035408 8.375 -0.1875 C9.1690625 -0.21263672 9.963125 -0.23777344 10.78125 -0.26367188 C12.85586148 -0.29004405 14.93100865 -0.15486462 17 0 C17.66 0.99 18.32 1.98 19 3 C13.72 2.67 8.44 2.34 3 2 C3 2.99 3 3.98 3 5 C3.99 5.33 4.98 5.66 6 6 C5.67 7.32 5.34 8.64 5 10 C2.34424386 6.86137911 1.22792806 3.89733689 0 0 Z " fill="#382D23" transform="translate(78,38)"/>
<path d="M0 0 C0.33 0 0.66 0 1 0 C0.48351265 7.78808563 -0.44876534 15.34925042 -2 23 C-2.33 23 -2.66 23 -3 23 C-3 20.69 -3 18.38 -3 16 C-3.66 16 -4.32 16 -5 16 C-4.54762239 14.08191891 -4.08785537 12.16557967 -3.625 10.25 C-3.24214844 8.64898437 -3.24214844 8.64898437 -2.8515625 7.015625 C-2.12466459 4.44147278 -1.2973776 2.32399814 0 0 Z " fill="#B19D5F" transform="translate(125,67)"/>
<path d="M0 0 C0.66 1.32 1.32 2.64 2 4 C1.1875 6.0625 1.1875 6.0625 0 8 C-0.33 8.99 -0.66 9.98 -1 11 C-6.94 11 -12.88 11 -19 11 C-19 10.34 -19 9.68 -19 9 C-13.39 9 -7.78 9 -2 9 C-1.34 6.03 -0.68 3.06 0 0 Z " fill="#E2C25B" transform="translate(131,146)"/>
<path d="M0 0 C6.60143885 3.74676259 6.60143885 3.74676259 8 6 C7.7366201 11.26759802 6.56790713 15.9826972 5 21 C4.67 21 4.34 21 4 21 C3.67 18.03 3.34 15.06 3 12 C3.66 11.67 4.32 11.34 5 11 C4.72965366 8.56282742 4.72965366 8.56282742 4 6 C3.01 5.34 2.02 4.68 1 4 C1.33 3.34 1.66 2.68 2 2 C1.34 2 0.68 2 0 2 C0 1.34 0 0.68 0 0 Z " fill="#0B0826" transform="translate(117,57)"/>
<path d="M0 0 C0.33 0 0.66 0 1 0 C0.44890325 7.54385572 -0.88895347 14.7557699 -2.5625 22.125 C-2.79646484 23.176875 -3.03042969 24.22875 -3.27148438 25.3125 C-3.84249125 27.87620435 -4.41873819 30.43860496 -5 33 C-5.33 33 -5.66 33 -6 33 C-5.88581333 30.41577541 -5.75907638 27.83320487 -5.625 25.25 C-5.5940625 24.52039063 -5.563125 23.79078125 -5.53125 23.0390625 C-5.32045121 19.17441798 -4.89002341 16.36334874 -3 13 C-2.62347305 10.7779727 -2.62347305 10.7779727 -2.5 8.5 C-2.27254393 5.17914134 -1.63960538 2.90897728 0 0 Z " fill="#E1C654" transform="translate(57,86)"/>
<path d="M0 0 C2.31 0.33 4.62 0.66 7 1 C7 1.66 7 2.32 7 3 C9.31 3 11.62 3 14 3 C14.33 4.98 14.66 6.96 15 9 C15.99 9.33 16.98 9.66 18 10 C17.01 10.495 17.01 10.495 16 11 C14.30419922 10.21142578 14.30419922 10.21142578 12.3046875 8.9453125 C11.58925781 8.49542969 10.87382812 8.04554687 10.13671875 7.58203125 C9.39035156 7.10121094 8.64398438 6.62039062 7.875 6.125 C7.12089844 5.65191406 6.36679688 5.17882813 5.58984375 4.69140625 C1.52368719 2.11053653 1.52368719 2.11053653 0 1 C0 0.67 0 0.34 0 0 Z " fill="#E5C746" transform="translate(142,46)"/>
<path d="M0 0 C3.34373475 0.55728913 6.03312999 1.35173889 9 3 C8.67 4.093125 8.34 5.18625 8 6.3125 C6.86913351 9.84578884 6.86913351 9.84578884 7 13 C6.01364163 11.58833114 5.03618745 10.17043816 4.0625 8.75 C3.51722656 7.96109375 2.97195312 7.1721875 2.41015625 6.359375 C1.10377559 4.17363007 0.45019489 2.4846199 0 0 Z " fill="#06032B" transform="translate(119,49)"/>
<path d="M0 0 C2.9719385 1.12451727 5.33440687 2.22293791 8 4 C10.62531524 4.16713569 10.62531524 4.16713569 13 4 C13.144375 4.598125 13.28875 5.19625 13.4375 5.8125 C13.8872439 7.56150404 14.42892341 9.28677023 15 11 C15.99 11 16.98 11 18 11 C18 11.99 18 12.98 18 14 C15.26460702 12.71277826 12.92322624 11.29913102 10.546875 9.43359375 C9.928125 8.94826172 9.309375 8.46292969 8.671875 7.96289062 C8.03765625 7.45951172 7.4034375 6.95613281 6.75 6.4375 C6.1003125 5.93025391 5.450625 5.42300781 4.78125 4.90039062 C3.16643491 3.62651864 1.58041476 2.31630802 0 1 C0 0.67 0 0.34 0 0 Z " fill="#E5C649" transform="translate(97,40)"/>
<path d="M0 0 C0.66 0 1.32 0 2 0 C2 0.66 2 1.32 2 2 C4.83269666 3.41634833 7.47466438 3.3463005 10.625 3.5625 C11.81351563 3.64628906 13.00203125 3.73007812 14.2265625 3.81640625 C15.59941406 3.90728516 15.59941406 3.90728516 17 4 C17 4.33 17 4.66 17 5 C9.08 5.495 9.08 5.495 1 6 C1.99 8.97 2.98 11.94 4 15 C3.01 14.01 2.02 13.02 1 12 C1 11.34 1 10.68 1 10 C0.34 10 -0.32 10 -1 10 C-1.02689216 8.52093108 -1.04634621 7.04172517 -1.0625 5.5625 C-1.07410156 4.73878906 -1.08570313 3.91507813 -1.09765625 3.06640625 C-1 1 -1 1 0 0 Z " fill="#B9A141" transform="translate(44,34)"/>
<path d="M0 0 C0 1.65 0 3.3 0 5 C-0.66 5 -1.32 5 -2 5 C-2.474375 5.639375 -2.94875 6.27875 -3.4375 6.9375 C-5 9 -5 9 -8 10 C-8.33 10.99 -8.66 11.98 -9 13 C-9.99 13 -10.98 13 -12 13 C-10.56179563 7.72658399 -6.9961885 4.50608991 -3 1 C-1 0 -1 0 0 0 Z " fill="#F4CF39" transform="translate(37,23)"/>
<path d="M0 0 C0.66 0 1.32 0 2 0 C0.48526781 7.98676972 -2.16802552 15.40122878 -5 23 C-6.3805087 19.23331402 -5.59568159 16.55210827 -4.5625 12.75 C-4.27503906 11.67234375 -3.98757812 10.5946875 -3.69140625 9.484375 C-3.46324219 8.66453125 -3.23507813 7.8446875 -3 7 C-2.34 7 -1.68 7 -1 7 C-0.67 4.69 -0.34 2.38 0 0 Z " fill="#181116" transform="translate(158,57)"/>
<path d="M0 0 C2.3125 -0.3125 2.3125 -0.3125 5 0 C6.875 2.25 6.875 2.25 8 5 C7.5703125 7.171875 7.5703125 7.171875 7 9 C5.8225266 8.26708288 4.65823146 7.51296199 3.5 6.75 C2.52546875 6.12351562 2.52546875 6.12351562 1.53125 5.484375 C1.0259375 4.99453125 0.520625 4.5046875 0 4 C0 2.68 0 1.36 0 0 Z " fill="#FAD12D" transform="translate(77,49)"/>
<path d="M0 0 C0.66 0 1.32 0 2 0 C2 4.29 2 8.58 2 13 C1.67 12.01 1.34 11.02 1 10 C0.01 10.33 -0.98 10.66 -2 11 C-2.28571429 3.57142857 -2.28571429 3.57142857 0 0 Z " fill="#E0C153" transform="translate(120,83)"/>
<path d="M0 0 C0.96912042 3.27078142 1 5.39035432 1 9 C-5.93 9 -12.86 9 -20 9 C-19.67 8.01 -19.34 7.02 -19 6 C-19 6.66 -19 7.32 -19 8 C-11.08 7.505 -11.08 7.505 -3 7 C-2.01 4.69 -1.02 2.38 0 0 Z " fill="#D0B455" transform="translate(63,147)"/>
<path d="M0 0 C0.66 0 1.32 0 2 0 C0.77078205 8.12751571 -1.8850717 15.41479291 -5 23 C-5.33 23 -5.66 23 -6 23 C-6 21.02 -6 19.04 -6 17 C-5.34 17 -4.68 17 -4 17 C-3.67 14.03 -3.34 11.06 -3 8 C-2.34 8 -1.68 8 -1 8 C-0.67 5.36 -0.34 2.72 0 0 Z " fill="#1C1119" transform="translate(114,92)"/>
<path d="M0 0 C0.33 0 0.66 0 1 0 C1.28216939 5.54933132 1.19792483 8.32610986 -2 13 C-2.71143088 14.98451771 -3.38991336 16.98202112 -4 19 C-4.66 18.67 -5.32 18.34 -6 18 C-4 12 -2 6 0 0 Z " fill="#D3B94B" transform="translate(70,128)"/>
<path d="M0 0 C1.46300982 0.93018526 2.92025579 1.86944027 4.375 2.8125 C5.18710938 3.33457031 5.99921875 3.85664062 6.8359375 4.39453125 C9 6 9 6 11 9 C10.01 9 9.02 9 8 9 C8 8.34 8 7.68 8 7 C7.0925 7.061875 6.185 7.12375 5.25 7.1875 C1.70761168 6.98313144 0.47346304 6.47346304 -2 4 C-2 3.34 -2 2.68 -2 2 C-1.34 2 -0.68 2 0 2 C0 1.34 0 0.68 0 0 Z " fill="#0F0821" transform="translate(106,48)"/>
<path d="M0 0 C0.33 0 0.66 0 1 0 C1.90413243 4.43024892 2.06352704 7.53267508 0.61328125 11.82421875 C-0.77763644 16.75887578 -1.28347458 21.93096378 -2 27 C-2.33 27 -2.66 27 -3 27 C-3.44218238 17.71417006 -1.76773893 9.07018429 0 0 Z " fill="#0E0913" transform="translate(123,85)"/>
<path d="M0 0 C0.33 0 0.66 0 1 0 C1.08159574 4.16138263 0.98248524 7.9472484 0 12 C-0.66 10.68 -1.32 9.36 -2 8 C-2.28875 8.804375 -2.5775 9.60875 -2.875 10.4375 C-4 13 -4 13 -6 14 C-4.66666667 10 -3.33333333 6 -2 2 C-1.34 2 -0.68 2 0 2 C0 1.34 0 0.68 0 0 Z " fill="#EFCE51" transform="translate(88,87)"/>
<path d="M0 0 C5.61 0 11.22 0 17 0 C17 0.33 17 0.66 17 1 C12.38 1 7.76 1 3 1 C3.99 2.98 4.98 4.96 6 7 C5.67 7.99 5.34 8.98 5 10 C4.16121545 8.71186658 3.32913217 7.41936744 2.5 6.125 C2.0359375 5.40570313 1.571875 4.68640625 1.09375 3.9453125 C0 2 0 2 0 0 Z " fill="#0E0715" transform="translate(113,39)"/>
<path d="M0 0 C0.33 0 0.66 0 1 0 C1.0544452 2.20805524 1.09299283 4.41650554 1.125 6.625 C1.14820312 7.85476562 1.17140625 9.08453125 1.1953125 10.3515625 C1.0030428 13.94316041 0.30258556 16.66661175 -1 20 C-1.66 19.67 -2.32 19.34 -3 19 C-2.01 12.73 -1.02 6.46 0 0 Z " fill="#271E1F" transform="translate(82,129)"/>
<path d="M0 0 C1.07174763 3.65188082 0.76411467 6.26432828 0 10 C-0.66 10 -1.32 10 -2 10 C-2 10.99 -2 11.98 -2 13 C-2.99 13.33 -3.98 13.66 -5 14 C-4.34580901 8.93001981 -2.1453591 4.58009223 0 0 Z " fill="#C5AB48" transform="translate(81,101)"/>
<path d="M0 0 C1.28497537 3.85492611 0.4052209 5.40346836 -0.9375 9.1875 C-1.31777344 10.27417969 -1.69804687 11.36085938 -2.08984375 12.48046875 C-2.39019531 13.31191406 -2.69054687 14.14335937 -3 15 C-3.66 15 -4.32 15 -5 15 C-4.34 11.7 -3.68 8.4 -3 5 C-2.34 5 -1.68 5 -1 5 C-0.67 3.35 -0.34 1.7 0 0 Z " fill="#191218" transform="translate(140,116)"/>
<path d="M0 0 C0.99 0 1.98 0 3 0 C2.34728444 3.51705958 1.48606976 6.89325077 0.4375 10.3125 C0.16808594 11.19550781 -0.10132812 12.07851562 -0.37890625 12.98828125 C-0.58386719 13.65214844 -0.78882812 14.31601563 -1 15 C-1.33 15 -1.66 15 -2 15 C-1.38487182 9.99109914 -0.7282448 4.99367864 0 0 Z " fill="#20181B" transform="translate(105,115)"/>
<path d="M0 0 C2.475 0.495 2.475 0.495 5 1 C5.66666667 5.66666667 6.33333333 10.33333333 7 15 C5.36457914 11.79029551 3.85968003 8.53192428 2.375 5.25 C1.92898437 4.26515625 1.48296875 3.2803125 1.0234375 2.265625 C0.68570313 1.51796875 0.34796875 0.7703125 0 0 Z " fill="#10071A" transform="translate(55,65)"/>
<path d="M0 0 C4.2742558 1.5830577 6.26531794 4.50568404 9 8 C8.01 8 7.02 8 6 8 C6 7.34 6 6.68 6 6 C4.35 5.67 2.7 5.34 1 5 C0.67 3.35 0.34 1.7 0 0 Z " fill="#241923" transform="translate(75,53)"/>
<path d="M0 0 C7.04440079 -0.21133202 13.24112575 -0.07965362 20 2 C20 2.33 20 2.66 20 3 C17.1875 3.625 17.1875 3.625 14 4 C13.01 3.34 12.02 2.68 11 2 C8.26127045 1.54227937 8.26127045 1.54227937 5.3125 1.375 C4.31863281 1.30023437 3.32476562 1.22546875 2.30078125 1.1484375 C1.54152344 1.09945313 0.78226563 1.05046875 0 1 C0 0.67 0 0.34 0 0 Z " fill="#F0C54D" transform="translate(135,18)"/>
<path d="M0 0 C1.305239 3.91571701 0.32239848 5.03892997 -1.4375 8.6875 C-1.91058594 9.68136719 -2.38367188 10.67523438 -2.87109375 11.69921875 C-3.42990234 12.83810547 -3.42990234 12.83810547 -4 14 C-4.33 14 -4.66 14 -5 14 C-5 12.02 -5 10.04 -5 8 C-4.34 8 -3.68 8 -3 8 C-3.33 7.01 -3.66 6.02 -4 5 C-3.525625 4.54625 -3.05125 4.0925 -2.5625 3.625 C-0.90972192 2.06741796 -0.90972192 2.06741796 0 0 Z " fill="#221B1B" transform="translate(85,89)"/>
<path d="M0 0 C0.66 0 1.32 0 2 0 C1.88610125 1.79240663 1.75852313 3.58394835 1.625 5.375 C1.52058594 6.87160156 1.52058594 6.87160156 1.4140625 8.3984375 C1 11 1 11 -1 13 C-1.02686553 11.02090602 -1.04633375 9.04171029 -1.0625 7.0625 C-1.07410156 5.96035156 -1.08570312 4.85820312 -1.09765625 3.72265625 C-1 1 -1 1 0 0 Z " fill="#C4AA46" transform="translate(78,142)"/>
<path d="M0 0 C0.66 0 1.32 0 2 0 C1.57316761 1.58624235 1.13303842 3.1689098 0.6875 4.75 C0.44386719 5.63171875 0.20023437 6.5134375 -0.05078125 7.421875 C-1.02125331 10.05772505 -2.21005644 11.85407326 -4 14 C-3.71572583 12.41532272 -3.42225182 10.8322943 -3.125 9.25 C-2.96257813 8.36828125 -2.80015625 7.4865625 -2.6328125 6.578125 C-2.03203736 4.13052256 -1.22002883 2.19400143 0 0 Z " fill="#150B15" transform="translate(65,137)"/>
<path d="M0 0 C0.33 0 0.66 0 1 0 C1 1.98 1 3.96 1 6 C0.01 6.33 -0.98 6.66 -2 7 C-2.33 8.65 -2.66 10.3 -3 12 C-4.21386936 8.35839192 -3.6674695 7.66834531 -2.0625 4.3125 C-1.49208984 3.10013672 -1.49208984 3.10013672 -0.91015625 1.86328125 C-0.60980469 1.24839844 -0.30945313 0.63351563 0 0 Z " fill="#C4AC4B" transform="translate(146,102)"/>
<path d="M0 0 C1.60461448 4.01153621 0.45438973 7.07314774 -1 11 C-1.99 11.66 -2.98 12.32 -4 13 C-3.52140759 11.39566191 -3.04210442 9.79153584 -2.5625 8.1875 C-2.29566406 7.29417969 -2.02882813 6.40085937 -1.75390625 5.48046875 C-1.19612127 3.64526945 -0.60655425 1.81966274 0 0 Z " fill="#D3BC54" transform="translate(111,107)"/>
<path d="M0 0 C0.598125 0.309375 1.19625 0.61875 1.8125 0.9375 C4.08956772 2.10209704 4.08956772 2.10209704 7 3 C7 3.66 7 4.32 7 5 C7.99 5 8.98 5 10 5 C10 5.99 10 6.98 10 8 C6.05205855 6.32971708 3.18203882 3.8204435 0 1 C0 0.67 0 0.34 0 0 Z " fill="#D3B654" transform="translate(105,46)"/>
<path d="M0 0 C2.74277578 3.19990508 4.6302836 6.00499382 6 10 C5.01 10.495 5.01 10.495 4 11 C0 4.5 0 4.5 0 0 Z " fill="#CCB24E" transform="translate(115,44)"/>
<path d="M0 0 C2.43840236 2.43840236 3.62292893 4.85240898 5 8 C4.67 8.66 4.34 9.32 4 10 C1.4375 7.8125 1.4375 7.8125 -1 5 C-0.8125 2.1875 -0.8125 2.1875 0 0 Z " fill="#BCAC69" transform="translate(88,59)"/>
<path d="M0 0 C0.33 0 0.66 0 1 0 C1.66 2.31 2.32 4.62 3 7 C2.01 7.99 1.02 8.98 0 10 C-0.33 9.67 -0.66 9.34 -1 9 C-0.91062197 7.47480724 -0.75462854 5.95318071 -0.5625 4.4375 C-0.46066406 3.61121094 -0.35882812 2.78492188 -0.25390625 1.93359375 C-0.17011719 1.29550781 -0.08632813 0.65742187 0 0 Z " fill="#F5D146" transform="translate(22,40)"/>
<path d="M0 0 C0.33 0 0.66 0 1 0 C1 2.64 1 5.28 1 8 C-0.98 8.99 -0.98 8.99 -3 10 C-2.01 6.7 -1.02 3.4 0 0 Z " fill="#D0B54B" transform="translate(156,69)"/>
<path d="M0 0 C1.65 0 3.3 0 5 0 C4.01 2.97 3.02 5.94 2 9 C1 5 1 5 2 2 C1.34 2 0.68 2 0 2 C0 1.34 0 0.68 0 0 Z " fill="#10091E" transform="translate(86,76)"/>
<path d="M0 0 C3.26460973 1.80412643 4.88929795 2.83394693 7 6 C5.35 6 3.7 6 2 6 C1.34 4.02 0.68 2.04 0 0 Z " fill="#1B1120" transform="translate(62,41)"/>
<path d="M0 0 C3.3566285 2.23775234 3.57996014 2.93320048 4.6875 6.625 C4.93886719 7.44226562 5.19023438 8.25953125 5.44921875 9.1015625 C5.72185547 10.04128906 5.72185547 10.04128906 6 11 C3.57000464 8.72635823 2.57194165 7.31726155 2 4 C1.34 4 0.68 4 0 4 C0 2.68 0 1.36 0 0 Z " fill="#E0C454" transform="translate(77,39)"/>
<path d="M0 0 C0.66 0.33 1.32 0.66 2 1 C1.1875 2.9375 1.1875 2.9375 0 5 C-0.99 5.33 -1.98 5.66 -3 6 C-3 4.68 -3 3.36 -3 2 C-2.01 1.34 -1.02 0.68 0 0 Z " fill="#F2CE3B" transform="translate(164,163)"/>
<path d="M0 0 C0.33 0 0.66 0 1 0 C0.67 3.96 0.34 7.92 0 12 C-0.33 12 -0.66 12 -1 12 C-1.33 9.03 -1.66 6.06 -2 3 C-1.34 3 -0.68 3 0 3 C0 2.01 0 1.02 0 0 Z " fill="#CAB653" transform="translate(113,141)"/>
<path d="M0 0 C0.66 0.33 1.32 0.66 2 1 C1.835 1.598125 1.67 2.19625 1.5 2.8125 C0.8885876 5.11344336 0.8885876 5.11344336 1 8 C-3 3.25 -3 3.25 -3 1 C-2.01 0.67 -1.02 0.34 0 0 Z " fill="#0E0921" transform="translate(125,54)"/>
<path d="M0 0 C1.98 1.65 3.96 3.3 6 5 C2.25 6.125 2.25 6.125 0 5 C0 3.35 0 1.7 0 0 Z " fill="#0C041A" transform="translate(69,47)"/>
<path d="M0 0 C2.31 0.33 4.62 0.66 7 1 C7.33 2.32 7.66 3.64 8 5 C4.62496331 3.8141763 2.35277269 2.72426311 0 0 Z " fill="#D5B94E" transform="translate(142,46)"/>
<path d="M0 0 C0 0.99 0 1.98 0 3 C-0.66 3.66 -1.32 4.32 -2 5 C-2.6425235 7.06874034 -2.6425235 7.06874034 -3 9 C-3.99 9 -4.98 9 -6 9 C-4.68775452 5.06326356 -3.08089673 2.77280706 0 0 Z " fill="#EECE54" transform="translate(31,27)"/>
<path d="M0 0 C0.66 0.33 1.32 0.66 2 1 C2 3.31 2 5.62 2 8 C1.01 8 0.02 8 -1 8 C-0.67 5.36 -0.34 2.72 0 0 Z " fill="#1D1122" transform="translate(114,140)"/>
<path d="M0 0 C0.33 0 0.66 0 1 0 C1 2.31 1 4.62 1 7 C0.01 7.33 -0.98 7.66 -2 8 C-2.20086443 4.28400809 -2.1519437 3.22791555 0 0 Z " fill="#FBD13A" transform="translate(120,86)"/>
<path d="M0 0 C0.99 0 1.98 0 3 0 C3 2.31 3 4.62 3 7 C1.5 5.75 1.5 5.75 0 4 C0 2.68 0 1.36 0 0 Z " fill="#0D0C36" transform="translate(125,63)"/>
<path d="M0 0 C3.26460973 1.80412643 4.88929795 2.83394693 7 6 C4.03 5.505 4.03 5.505 1 5 C1.33 4.01 1.66 3.02 2 2 C1.34 2 0.68 2 0 2 C0 1.34 0 0.68 0 0 Z " fill="#110B1C" transform="translate(117,57)"/>
<path d="M0 0 C3.0916909 2.52956528 3.90931332 5.22454612 5 9 C3.0625 8.4375 3.0625 8.4375 1 7 C0.25 3.375 0.25 3.375 0 0 Z " fill="#D4B756" transform="translate(83,50)"/>
<path d="" fill="#FFFFFF" transform="translate(0,0)"/>
<path d="" fill="#FFFFFF" transform="translate(0,0)"/>
<path d="" fill="#FFFFFF" transform="translate(0,0)"/>
<path d="" fill="#FFFFFF" transform="translate(0,0)"/>
<path d="" fill="#FFFFFF" transform="translate(0,0)"/>
<path d="" fill="#FFFFFF" transform="translate(0,0)"/>
<path d="" fill="#FFFFFF" transform="translate(0,0)"/>
<path d="" fill="#FFFFFF" transform="translate(0,0)"/>
<path d="" fill="#FFFFFF" transform="translate(0,0)"/>
<path d="" fill="#FFFFFF" transform="translate(0,0)"/>
<path d="" fill="#FFFFFF" transform="translate(0,0)"/>
<path d="" fill="#FFFFFF" transform="translate(0,0)"/>
<path d="" fill="#FFFFFF" transform="translate(0,0)"/>
<path d="" fill="#FFFFFF" transform="translate(0,0)"/>
<path d="" fill="#FFFFFF" transform="translate(0,0)"/>
<path d="" fill="#FFFFFF" transform="translate(0,0)"/>
<path d="" fill="#FFFFFF" transform="translate(0,0)"/>
<path d="" fill="#FFFFFF" transform="translate(0,0)"/>
<path d="" fill="#FFFFFF" transform="translate(0,0)"/>
<path d="" fill="#FFFFFF" transform="translate(0,0)"/>
<path d="" fill="#FFFFFF" transform="translate(0,0)"/>
<path d="" fill="#FFFFFF" transform="translate(0,0)"/>
<path d="" fill="#FFFFFF" transform="translate(0,0)"/>
<path d="" fill="#FFFFFF" transform="translate(0,0)"/>
<path d="" fill="#FFFFFF" transform="translate(0,0)"/>
<path d="" fill="#FFFFFF" transform="translate(0,0)"/>
<path d="" fill="#FFFFFF" transform="translate(0,0)"/>
<path d="" fill="#FFFFFF" transform="translate(0,0)"/>
<path d="" fill="#FFFFFF" transform="translate(0,0)"/>
<path d="" fill="#FFFFFF" transform="translate(0,0)"/>
<path d="" fill="#FFFFFF" transform="translate(0,0)"/>
<path d="" fill="#FFFFFF" transform="translate(0,0)"/>
<path d="" fill="#FFFFFF" transform="translate(0,0)"/>
<path d="" fill="#FFFFFF" transform="translate(0,0)"/>
<path d="" fill="#FFFFFF" transform="translate(0,0)"/>
<path d="" fill="#FFFFFF" transform="translate(0,0)"/>
<path d="" fill="#FFFFFF" transform="translate(0,0)"/>
<path d="" fill="#FFFFFF" transform="translate(0,0)"/>
<path d="" fill="#FFFFFF" transform="translate(0,0)"/>
<path d="" fill="#FFFFFF" transform="translate(0,0)"/>
</svg>
